<?xml version="1.0" encoding="utf-8"?>
<!-- Generator: Adobe Illustrator 25.0.0, SVG Export Plug-In . SVG Version: 6.00 Build 0)  -->
<svg version="1.1" id="Layer_1" xmlns="http://www.w3.org/2000/svg" xmlns:xlink="http://www.w3.org/1999/xlink" x="0px" y="0px"
	 viewBox="0 0 492.9 435.8" style="enable-background:new 0 0 492.9 435.8;" xml:space="preserve">
<style type="text/css">
	.st0{fill-rule:evenodd;clip-rule:evenodd;fill:#222222;}
</style>
<path class="st0" d="M217.8,0c46.4,0,89.5,14.6,124.9,39.4c3.3,1.6,5.6,4.7,6.2,8.3c0,0.1,0,0.2,0.1,0.3c0,0,0,0,0,0
	c0.5,3.5-0.6,7.1-3.1,9.6l-22.9,32c-1.6,3.2-4.7,5.5-8.2,6.1c-0.1,0-0.2,0-0.3,0.1c0,0,0,0,0,0c-3.5,0.5-7-0.6-9.5-3
	c-24.7-17.2-54.7-27.4-87.2-27.4c-84.3,0-152.5,68.2-152.5,152.5s68.2,152.5,152.5,152.5c79.1,0,143.8-58.7,151.7-135.4l-48,16.2
	l0,0c-4.6,2.3-10.2,1.2-13.5-2.7c-3.3-3.8-3.7-9.4-0.9-13.6l53.7-111.8v0c1.3-2.8,3.7-4.9,6.7-5.8c2.9-0.9,6.1-0.6,8.8,0.8l109.3,60
	v0c4.5,1.7,7.4,6,7.3,10.7c0,0.1,0,0.2,0,0.2c0,0.2,0,0.5-0.1,0.7c0,0.3-0.1,0.6-0.1,0.9c0,0,0,0,0,0.1c-0.8,4.6-4.4,8.1-8.9,9
	l-48.1,16.1v2c0,120.2-97.7,217.9-217.9,217.9S0,338.1,0,217.9C0,97.7,97.7,0,217.8,0L217.8,0z"/>
</svg>
